<?xml version="1.0" encoding="utf-8"?><svg width="48" height="48" fill="none" xmlns="http://www.w3.org/2000/svg" viewBox="0 0 48 48"><g clip-path="url(#cclip0)" fill="#fff"><path d="M43.472 15.249L41.484 1.328C41.32.187 39.917-.288 39.097.533l-2.896 2.896A23.75 23.75 0 0023.9 0C10.824 0 .327 10.234 0 23.298a1.407 1.407 0 001.207 1.428l5.62.803a1.408 1.408 0 001.605-1.411C8.316 15.496 15.28 8.438 23.9 8.438c2.087 0 4.15.424 6.056 1.235l-2.791 2.792c-.816.816-.353 2.223.795 2.387l13.92 1.989c.918.138 1.724-.66 1.592-1.592zM46.792 23.382l-5.615-.802c-.726-.091-1.605.53-1.605 1.514 0 8.53-6.94 15.468-15.47 15.468-2.076 0-4.129-.42-6.028-1.223l2.703-2.703c.815-.815.352-2.222-.795-2.387L6.06 31.26a1.41 1.41 0 00-1.592 1.592l1.988 13.921c.164 1.143 1.566 1.614 2.387.796l2.966-2.965A23.805 23.805 0 0024.103 48c13.012 0 23.508-10.183 23.896-23.183a1.408 1.408 0 00-1.207-1.435z"/></g><defs><clipPath id="cclip0"><path fill="#fff" d="M0 0h48v48H0z"/></clipPath></defs></svg>